<svg width="32" height="32" viewBox="0 0 32 32" xmlns="http://www.w3.org/2000/svg">
  <defs>
    <style>
      .hex { fill: none; stroke: #2563eb; stroke-width: 1.5; }
      .hex-fill { fill: #2563eb; opacity: 0.1; }
    </style>
  </defs>
  
  <!-- Central hexagon -->
  <polygon class="hex-fill" points="16,4 22,8 22,16 16,20 10,16 10,8"/>
  <polygon class="hex" points="16,4 22,8 22,16 16,20 10,16 10,8"/>
  
  <!-- Surrounding hexagons (partial) -->
  <polygon class="hex" points="16,4 22,8 25,4 19,0 13,4"/>
  <polygon class="hex" points="22,8 22,16 28,20 28,12 22,8"/>
  <polygon class="hex" points="22,16 16,20 19,26 25,22 22,16"/>
  <polygon class="hex" points="10,16 16,20 13,26 7,22 10,16"/>
  <polygon class="hex" points="10,8 10,16 4,20 4,12 10,8"/>
  <polygon class="hex" points="10,8 16,4 13,2 7,6 10,8"/>
</svg>